<svg width="40" height="40" viewBox="0 0 28 44" fill="none" xmlns="http://www.w3.org/2000/svg">
<path d="M23.8047 23.7969C26.4219 21.1797 27.8672 17.6934 27.8672 13.9922C27.8672 10.2861 26.4268 6.80469 23.8047 4.1875C21.1875 1.57031 17.7012 0.125 14 0.125C10.2988 0.125 6.8125 1.56543 4.19531 4.1875C1.57813 6.80957 0.132812 10.2861 0.132812 13.9922C0.132812 17.1074 1.15332 20.0664 3.0332 22.4834C3.38965 22.9424 3.77539 23.377 4.19043 23.7969C4.60547 24.2119 5.04492 24.5977 5.49902 24.9541C7.43262 26.458 9.71289 27.415 12.1445 27.7373V32.9375H6.57812C6.36328 32.9375 6.1875 33.1133 6.1875 33.3281V36.2578C6.1875 36.4727 6.36328 36.6484 6.57812 36.6484H12.1445V43.4844C12.1445 43.6992 12.3203 43.875 12.5352 43.875H15.4648C15.6797 43.875 15.8555 43.6992 15.8555 43.4844V36.6484H21.4219C21.6367 36.6484 21.8125 36.4727 21.8125 36.2578V33.3281C21.8125 33.1133 21.6367 32.9375 21.4219 32.9375H15.8555V27.7373C18.8584 27.3369 21.627 25.9746 23.8047 23.7969ZM14 24.1484C11.2852 24.1484 8.74121 23.0938 6.81738 21.1748C4.89844 19.2559 3.84375 16.707 3.84375 13.9922C3.84375 11.2773 4.89844 8.7334 6.81738 6.80957C8.73633 4.88574 11.2852 3.83594 14 3.83594C16.7148 3.83594 19.2588 4.89062 21.1826 6.80957C23.1016 8.72852 24.1562 11.2773 24.1562 13.9922C24.1562 16.707 23.1016 19.251 21.1826 21.1748C19.2588 23.0938 16.7148 24.1484 14 24.1484Z" fill="white"/>
</svg>
