<svg width="40" height="40" viewBox="0 0 40 40" fill="none" xmlns="http://www.w3.org/2000/svg">
<path d="M37.6758 0.859375H25.3711C25.21 0.859375 25.0781 0.991211 25.0781 1.15234V3.88672C25.0781 4.04785 25.21 4.17969 25.3711 4.17969H33.2031L23.4717 13.9111C21.0303 12.0312 18.0518 11.0156 14.9219 11.0156C11.167 11.0156 7.63184 12.4805 4.98047 15.1367C2.3291 17.793 0.859375 21.3232 0.859375 25.0781C0.859375 28.833 2.32422 32.3682 4.98047 35.0195C7.63184 37.6758 11.167 39.1406 14.9219 39.1406C18.6768 39.1406 22.2119 37.6758 24.8633 35.0195C27.5195 32.3682 28.9844 28.833 28.9844 25.0781C28.9844 21.9482 27.9688 18.9795 26.0938 16.5381L35.8203 6.81152V14.6289C35.8203 14.79 35.9521 14.9219 36.1133 14.9219H38.8477C39.0088 14.9219 39.1406 14.79 39.1406 14.6289V2.32422C39.1406 1.51855 38.4814 0.859375 37.6758 0.859375ZM14.9219 35.4297C9.21387 35.4297 4.57031 30.7861 4.57031 25.0781C4.57031 19.3701 9.21387 14.7266 14.9219 14.7266C20.6299 14.7266 25.2734 19.3701 25.2734 25.0781C25.2734 30.7861 20.6299 35.4297 14.9219 35.4297Z" fill="white"/>
</svg>
