<svg width="14" height="14" viewBox="0 0 14 14" fill="none" xmlns="http://www.w3.org/2000/svg">
<path d="M0 11.375V7.3125C0 6.88152 0.163888 6.4682 0.455612 6.16345C0.747335 5.85871 1.143 5.6875 1.55556 5.6875V3.25C1.55556 2.38805 1.88333 1.5614 2.46678 0.951903C3.05023 0.34241 3.84155 0 4.66667 0H9.33333C10.1585 0 10.9498 0.34241 11.5332 0.951903C12.1167 1.5614 12.4444 2.38805 12.4444 3.25V5.6875C12.857 5.6875 13.2527 5.85871 13.5444 6.16345C13.8361 6.4682 14 6.88152 14 7.3125V11.375C14 11.806 13.8361 12.2193 13.5444 12.524C13.2527 12.8288 12.857 13 12.4444 13C12.0319 13 11.6362 12.8288 11.3445 12.524C11.0528 12.2193 10.8889 11.806 10.8889 11.375H3.11111C3.11111 11.806 2.94722 12.2193 2.6555 12.524C2.36378 12.8288 1.96811 13 1.55556 13C1.143 13 0.747335 12.8288 0.455612 12.524C0.163888 12.2193 0 11.806 0 11.375ZM4.66667 1.625C4.25411 1.625 3.85845 1.7962 3.56672 2.10095C3.275 2.4057 3.11111 2.81902 3.11111 3.25V5.6875H10.8889V3.25C10.8889 2.81902 10.725 2.4057 10.4333 2.10095C10.1416 1.7962 9.74589 1.625 9.33333 1.625H4.66667ZM2.33333 8.9375C2.53961 8.9375 2.73744 8.8519 2.88331 8.69952C3.02917 8.54715 3.11111 8.34049 3.11111 8.125C3.11111 7.90951 3.02917 7.70285 2.88331 7.55048C2.73744 7.3981 2.53961 7.3125 2.33333 7.3125C2.12705 7.3125 1.92922 7.3981 1.78336 7.55048C1.6375 7.70285 1.55556 7.90951 1.55556 8.125C1.55556 8.34049 1.6375 8.54715 1.78336 8.69952C1.92922 8.8519 2.12705 8.9375 2.33333 8.9375ZM11.6667 8.9375C11.8729 8.9375 12.0708 8.8519 12.2166 8.69952C12.3625 8.54715 12.4444 8.34049 12.4444 8.125C12.4444 7.90951 12.3625 7.70285 12.2166 7.55048C12.0708 7.3981 11.8729 7.3125 11.6667 7.3125C11.4604 7.3125 11.2626 7.3981 11.1167 7.55048C10.9708 7.70285 10.8889 7.90951 10.8889 8.125C10.8889 8.34049 10.9708 8.54715 11.1167 8.69952C11.2626 8.8519 11.4604 8.9375 11.6667 8.9375Z" fill="#434D60"/>
</svg>
