<svg width="29" height="29" viewBox="0 0 29 29" fill="none" xmlns="http://www.w3.org/2000/svg">
<path d="M24.1667 0H4.83333C3.55145 0 2.32208 0.509225 1.41565 1.41565C0.509225 2.32208 0 3.55145 0 4.83333V24.1667C0 25.4485 0.509225 26.6779 1.41565 27.5844C2.32208 28.4908 3.55145 29 4.83333 29H24.1667C25.4485 29 26.6779 28.4908 27.5844 27.5844C28.4908 26.6779 29 25.4485 29 24.1667V4.83333C29 3.55145 28.4908 2.32208 27.5844 1.41565C26.6779 0.509225 25.4485 0 24.1667 0ZM18.8661 16.5783C19.0171 16.7281 19.137 16.9063 19.2188 17.1026C19.3006 17.299 19.3427 17.5095 19.3427 17.7222C19.3427 17.9349 19.3006 18.1455 19.2188 18.3418C19.137 18.5381 19.0171 18.7163 18.8661 18.8661C18.7163 19.0171 18.5381 19.137 18.3418 19.2188C18.1455 19.3006 17.9349 19.3427 17.7222 19.3427C17.5095 19.3427 17.299 19.3006 17.1026 19.2188C16.9063 19.137 16.7281 19.0171 16.5783 18.8661L14.5 16.7717L12.4217 18.8661C12.2719 19.0171 12.0937 19.137 11.8974 19.2188C11.701 19.3006 11.4905 19.3427 11.2778 19.3427C11.0651 19.3427 10.8545 19.3006 10.6582 19.2188C10.4619 19.137 10.2837 19.0171 10.1339 18.8661C9.98288 18.7163 9.86302 18.5381 9.78123 18.3418C9.69944 18.1455 9.65732 17.9349 9.65732 17.7222C9.65732 17.5095 9.69944 17.299 9.78123 17.1026C9.86302 16.9063 9.98288 16.7281 10.1339 16.5783L12.2283 14.5L10.1339 12.4217C9.83051 12.1183 9.66008 11.7068 9.66008 11.2778C9.66008 10.8487 9.83051 10.4373 10.1339 10.1339C10.4373 9.83051 10.8487 9.66008 11.2778 9.66008C11.7068 9.66008 12.1183 9.83051 12.4217 10.1339L14.5 12.2283L16.5783 10.1339C16.8817 9.83051 17.2932 9.66008 17.7222 9.66008C18.1513 9.66008 18.5627 9.83051 18.8661 10.1339C19.1695 10.4373 19.3399 10.8487 19.3399 11.2778C19.3399 11.7068 19.1695 12.1183 18.8661 12.4217L16.7717 14.5L18.8661 16.5783Z" fill="#434D60"/>
</svg>
