<svg width="14" height="14" viewBox="0 0 14 14" fill="none" xmlns="http://www.w3.org/2000/svg">
<path d="M4.11491 1.70297L4.14203 1.74541C3.74968 1.7974 3.35822 1.85582 2.96778 1.92062C2.56506 1.98844 1.69991 2.30912 1.12416 2.53356L1.12066 2.49222L0.4375 2.71425L0.633938 5.41231L1.36347 5.47444L1.35909 5.42281L3.25959 5.56981C3.29328 7.81441 3.02619 10.4814 2.84462 12.0407L2.78097 12.026L2.73109 13.0071C2.73109 13.0071 4.55919 13.5253 6.99825 13.5625V12.5475L6.99956 3.01766L4.90831 0.4375L4.11491 1.70297ZM0.838688 5.21019L0.668281 2.86934L0.925313 2.78556L1.12459 5.23469L0.838688 5.21019ZM6.7795 13.3392C4.92056 13.2878 3.44181 12.9598 2.95859 12.8402L2.98616 12.2957C3.57853 12.4215 5.11678 12.7144 6.7795 12.7619V13.3392V13.3392ZM6.37131 12.0118C6.08825 12.0118 5.85813 11.7976 5.85813 11.5336C5.85813 11.2696 6.08825 11.0554 6.37131 11.0554C6.65459 11.0554 6.8845 11.2696 6.8845 11.5336C6.8845 11.7976 6.65459 12.0118 6.37131 12.0118ZM6.37131 10.2677C6.08825 10.2677 5.85813 10.0535 5.85813 9.78928C5.85813 9.52547 6.08825 9.31131 6.37131 9.31131C6.65459 9.31131 6.8845 9.52547 6.8845 9.78928C6.8845 10.0535 6.65459 10.2677 6.37131 10.2677ZM6.37131 8.52381C6.08825 8.52381 5.85813 8.30966 5.85813 8.04562C5.85813 7.78159 6.08825 7.56722 6.37131 7.56722C6.65459 7.56722 6.8845 7.78137 6.8845 8.04562C6.8845 8.30944 6.65459 8.52381 6.37131 8.52381ZM6.37131 6.7795C6.08825 6.7795 5.85813 6.56556 5.85813 6.30153C5.85813 6.03728 6.08825 5.82313 6.37131 5.82313C6.65459 5.82313 6.8845 6.03728 6.8845 6.30153C6.8845 6.56578 6.65459 6.7795 6.37131 6.7795ZM6.8845 4.55744C6.8845 4.82147 6.65459 5.03563 6.37131 5.03563C6.08825 5.03563 5.85813 4.82147 5.85813 4.55744C5.85813 4.29341 6.08825 4.07925 6.37131 4.07925C6.65459 4.07925 6.8845 4.29341 6.8845 4.55744ZM6.68806 2.98091L5.68072 3.75353L4.37347 1.70209L4.93106 0.813094L6.68806 2.98091Z" fill="#434D60"/>
<path d="M12.8798 2.49222L12.8763 2.53356C12.3005 2.30956 11.4352 1.98844 11.0327 1.92062C10.6422 1.85592 10.2508 1.79751 9.85842 1.74541L9.88554 1.70297L9.09214 0.4375H4.90833L5.99792 1.78128H8.00254L6.99958 3.01766L7.23823 3.20053V13.5562C9.55764 13.4903 11.2694 13.0071 11.2694 13.0071L11.2195 12.026L11.156 12.0409C10.9745 10.4814 10.707 7.81441 10.7409 5.56981L12.6407 5.42281L12.6363 5.47444L13.3661 5.41231L13.5625 2.71425L12.8798 2.49222V2.49222ZM9.06939 0.812875L9.62698 1.70209L8.31951 3.75353L7.31108 2.98069L9.06939 0.812875V0.812875ZM11.0143 12.2964L11.0419 12.84C10.5794 12.9539 9.20545 13.2584 7.45698 13.3295V12.754C9.01514 12.6954 10.4469 12.4187 11.0143 12.2964V12.2964ZM13.1613 5.21019L12.8752 5.23447L13.0751 2.78578L13.3317 2.86934L13.1613 5.21019Z" fill="#434D60"/>
</svg>
