<svg width="14" height="14" viewBox="0 0 14 14" fill="none" xmlns="http://www.w3.org/2000/svg">
<path d="M8.51789 8.21343L9.49788 6.51603C9.56087 6.41082 9.53288 6.27756 9.44188 6.2004L8.40589 5.38677C8.42689 5.23247 8.44089 5.07114 8.44089 4.90982C8.44089 4.7485 8.42689 4.58717 8.40589 4.42585L9.44188 3.61222C9.53288 3.53507 9.56087 3.4018 9.49788 3.29659L8.51789 1.5992C8.45489 1.49399 8.32889 1.4519 8.21689 1.49399L6.9989 1.98497C6.74691 1.78858 6.47391 1.62725 6.17291 1.501L5.99091 0.203407C5.97917 0.146679 5.94852 0.0956405 5.90399 0.0586763C5.85947 0.0217121 5.80373 0.00102031 5.74592 0H3.78594C3.66694 0 3.56194 0.0911823 3.54094 0.210421L3.35894 1.50802C3.06494 1.63427 2.78495 1.79559 2.53295 1.99198L1.31496 1.501C1.20296 1.45892 1.07697 1.501 1.01397 1.60621L0.0339766 3.30361C-0.0290228 3.40882 -0.00102294 3.54208 0.0899761 3.61924L1.12596 4.43287C1.10497 4.58717 1.09097 4.7485 1.09097 4.90982C1.09097 5.07114 1.10497 5.23246 1.12596 5.39379L0.0899761 6.20742C-0.00102294 6.28457 -0.0290228 6.41784 0.0339766 6.52305L1.01397 8.22044C1.07697 8.32565 1.20296 8.36774 1.31496 8.32565L2.53295 7.83467C2.78495 8.03106 3.05794 8.19238 3.35894 8.31864L3.54094 9.61623C3.56194 9.72846 3.66694 9.81964 3.78594 9.81964H5.74592C5.86491 9.81964 5.96991 9.72846 5.99091 9.60922L6.17291 8.31162C6.46691 8.18537 6.74691 8.02405 6.9989 7.82766L8.21689 8.31864C8.32889 8.36072 8.45489 8.31864 8.51789 8.21343ZM4.76593 6.31263C3.99593 6.31263 3.36594 5.68136 3.36594 4.90982C3.36594 4.13828 3.99593 3.50701 4.76593 3.50701C5.53592 3.50701 6.16591 4.13828 6.16591 4.90982C6.16591 5.68136 5.53592 6.31263 4.76593 6.31263ZM13.9428 11.6924L13.2708 11.1733C13.2848 11.0752 13.2988 10.9699 13.2988 10.8647C13.2988 10.7595 13.2918 10.6543 13.2708 10.5561L13.9358 10.0371C13.9918 9.98798 14.0128 9.90381 13.9708 9.83367L13.3408 8.74649C13.3058 8.67635 13.2218 8.65531 13.1448 8.67635L12.3678 8.99198C12.2068 8.86573 12.0318 8.76052 11.8359 8.68337L11.7169 7.85571C11.7141 7.81822 11.6975 7.7831 11.6703 7.75718C11.6432 7.73125 11.6074 7.71637 11.5699 7.71543H10.3169C10.2399 7.71543 10.1699 7.77154 10.1629 7.8487L10.0439 8.67635C9.85487 8.76052 9.67287 8.85872 9.51188 8.98497L8.73488 8.66934C8.69921 8.6559 8.65994 8.65557 8.62405 8.66841C8.58817 8.68125 8.55799 8.70644 8.53889 8.73948L7.90889 9.82665C7.87389 9.89679 7.88089 9.98096 7.94389 10.0301L8.60889 10.5491C8.58002 10.7538 8.58002 10.9616 8.60889 11.1663L7.94389 11.6854C7.88789 11.7345 7.86689 11.8186 7.90889 11.8888L8.53889 12.976C8.57389 13.0461 8.65788 13.0671 8.73488 13.0461L9.51188 12.7305C9.67287 12.8567 9.84787 12.9619 10.0439 13.0391L10.1629 13.8667C10.1769 13.9439 10.2399 14 10.3169 14H11.5699C11.6469 14 11.7169 13.9439 11.7239 13.8667L11.8429 13.0391C12.0318 12.9549 12.2138 12.8567 12.3678 12.7305L13.1518 13.0461C13.2218 13.0741 13.3058 13.0461 13.3478 12.976L13.9778 11.8888C14.0198 11.8257 13.9988 11.7415 13.9428 11.6924ZM10.9399 11.8046C10.6891 11.8045 10.4487 11.7046 10.2715 11.5269C10.0943 11.3492 9.99478 11.1082 9.99487 10.857C9.99496 10.6058 10.0947 10.3649 10.272 10.1873C10.4494 10.0097 10.6898 9.91003 10.9406 9.91012C11.1913 9.91021 11.4317 10.0101 11.6089 10.1878C11.7861 10.3655 11.8856 10.6065 11.8856 10.8577C11.8855 11.1089 11.7858 11.3498 11.6084 11.5274C11.4311 11.705 11.1906 11.8047 10.9399 11.8046Z" fill="#434D60"/>
</svg>
