<svg width="39" height="34" viewBox="0 0 39 34" fill="none"
  xmlns="http://www.w3.org/2000/svg">
  <path d="M11.0145 11.5875L12.7151 0.300049H3.87L0.17415 9.97505C0.0601999 10.319 0 10.6759 0 11.05C0 13.4236 2.4725 15.35 5.52765 15.35C8.34415 15.35 10.6726 13.7074 11.0145 11.5875ZM19.35 15.35C22.403 15.35 24.8777 13.4236 24.8777 11.05C24.8777 10.9619 24.8712 10.8737 24.8669 10.7899L23.7726 0.300049H14.9275L13.831 10.7813C13.8267 10.8694 13.8224 10.9576 13.8224 11.05C13.8224 13.4236 16.297 15.35 19.35 15.35ZM30.1 17.5989V26.1H8.6V17.6118C7.6583 17.9515 6.622 18.1451 5.52765 18.1451C5.1084 18.1451 4.70205 18.0956 4.3 18.0397V31.6901C4.3 33.3456 5.65235 34.7001 7.3057 34.7001H31.39C33.0455 34.7001 34.4 33.3434 34.4 31.6901V18.0418C33.9936 18.1042 33.5835 18.1394 33.1724 18.1472C32.124 18.1461 31.084 17.9606 30.1 17.5989ZM38.528 9.97505L34.8279 0.300049H25.9849L27.6834 11.5703C28.0145 13.6988 30.343 15.35 33.1724 15.35C36.2254 15.35 38.7 13.4236 38.7 11.05C38.7 10.6759 38.6398 10.319 38.528 9.97505Z" fill="#0085FF"/>
</svg>
