<svg width="22" height="21" viewBox="0 0 22 21" fill="none" xmlns="http://www.w3.org/2000/svg">
<path d="M2.76152 2.53492H19.2385C19.9356 2.53492 20.5059 1.96456 20.5059 1.26746C20.5059 0.570356 19.9356 0 19.2385 0H2.76152C2.06442 0 1.49406 0.570356 1.49406 1.26746C1.49406 1.96456 2.06442 2.53492 2.76152 2.53492ZM17.971 20.2793H20.5059V12.6746H20.7341C21.5326 12.6746 22.1283 11.9395 21.9762 11.1536L20.7087 4.81634C20.5947 4.23331 20.075 3.80238 19.4666 3.80238H2.53338C1.925 3.80238 1.40534 4.23331 1.29127 4.81634L0.0238086 11.1536C-0.128286 11.9395 0.467419 12.6746 1.26592 12.6746H1.49406V19.0119C1.49406 19.709 2.06442 20.2793 2.76152 20.2793H11.6337C12.3308 20.2793 12.9012 19.709 12.9012 19.0119V12.6746H17.971V20.2793ZM10.3663 17.7444H4.02898V12.6746H10.3663V17.7444Z" fill="#373F4C"/>
</svg>
