<svg width="28" height="23" viewBox="0 0 28 23" fill="none" xmlns="http://www.w3.org/2000/svg">
<path d="M27.6961 12.4897L27.7202 15.2052C27.7263 15.8894 27.5365 16.5249 27.2096 17.0703C27.1007 17.2516 26.9768 17.4233 26.8393 17.5836L26.8666 20.6429C26.8691 20.893 26.8204 21.1313 26.7313 21.3486C26.463 22.0005 25.8261 22.4606 25.0792 22.4656L23.2756 22.4776C22.2796 22.4844 21.4649 21.679 21.4559 20.6792L21.4397 18.8687L7.01068 18.9642L7.02684 20.7748C7.03591 21.7746 6.2354 22.5906 5.23941 22.5974L3.43582 22.6095C2.68892 22.6144 2.04382 22.1626 1.76427 21.5146C1.67122 21.2984 1.61836 21.0605 1.61607 20.811L1.5887 17.7517C1.44815 17.5931 1.32116 17.4229 1.20907 17.243C0.872642 16.7023 0.671411 16.0692 0.665372 15.385L0.641058 12.6689C0.631037 11.5091 1.1676 10.4783 2.00847 9.81265C2.29117 9.58871 2.60567 9.40842 2.94157 9.27772L3.56106 7.68382L4.65958 4.8572C4.77748 4.55393 4.91594 4.26378 5.07436 3.98866C5.38994 3.43819 5.78166 2.94536 6.23262 2.52307C6.4583 2.31158 6.69878 2.11772 6.95221 1.94319C7.4593 1.59289 8.01823 1.3181 8.61221 1.12993C9.20618 0.941757 9.83628 0.839906 10.4851 0.835626L17.6436 0.78806C18.2925 0.783781 18.9239 0.877101 19.5216 1.05783C20.4133 1.327 21.2346 1.79215 21.9256 2.41946C22.6139 3.04434 23.1705 3.82771 23.5398 4.73271L24.6884 7.5445L25.3363 9.13001C26.0132 9.38321 26.6002 9.83286 27.0224 10.4216C27.4399 11.0039 27.6894 11.7165 27.6961 12.4897ZM5.14245 11.7342C4.06005 11.7414 3.34531 12.4679 3.3546 13.5511C3.36389 14.6342 4.09207 15.3508 5.17393 15.3438C6.25633 15.3366 7.88108 15.5066 7.87125 14.4236C7.86196 13.3405 6.22431 11.7272 5.14245 11.7342ZM21.3508 8.91049L20.2022 6.0987C20.0973 5.84172 19.9559 5.60715 19.7858 5.39988C19.275 4.77824 18.5048 4.40266 17.6751 4.40817L10.5166 4.45574C9.97591 4.45936 9.44905 4.62552 9.004 4.93278C8.55895 5.24004 8.21611 5.67431 8.0197 6.17959L6.92119 9.00621L16.9574 8.93928L21.3508 8.91049ZM23.1787 11.6145C22.0963 11.6217 20.4874 13.257 20.4971 14.3394C20.5069 15.4224 22.1283 15.2311 23.2107 15.2239C24.2931 15.2167 25.0078 14.4902 24.9985 13.407C24.9889 12.3246 24.2611 11.6073 23.1787 11.6145Z" fill="#373F4C"/>
</svg>
