<svg width="24" height="18" viewBox="0 0 24 18" fill="none" xmlns="http://www.w3.org/2000/svg">
<path d="M0 3C0 2.20435 0.316071 1.44129 0.87868 0.87868C1.44129 0.31607 2.20435 0 3 0H21C21.7956 0 22.5587 0.31607 23.1213 0.87868C23.6839 1.44129 24 2.20435 24 3V15C24 15.7956 23.6839 16.5587 23.1213 17.1213C22.5587 17.6839 21.7956 18 21 18H3C2.20435 18 1.44129 17.6839 0.87868 17.1213C0.316071 16.5587 0 15.7956 0 15V3ZM3.75 4.5C3.55109 4.5 3.36032 4.57902 3.21967 4.71967C3.07902 4.86032 3 5.05109 3 5.25V6.75C3 6.94891 3.07902 7.13968 3.21967 7.28033C3.36032 7.42098 3.55109 7.5 3.75 7.5H6.75C6.94891 7.5 7.13968 7.42098 7.28033 7.28033C7.42098 7.13968 7.5 6.94891 7.5 6.75V5.25C7.5 5.05109 7.42098 4.86032 7.28033 4.71967C7.13968 4.57902 6.94891 4.5 6.75 4.5H3.75ZM3.75 9C3.55109 9 3.36032 9.07902 3.21967 9.21967C3.07902 9.36032 3 9.55109 3 9.75C3 9.94891 3.07902 10.1397 3.21967 10.2803C3.36032 10.421 3.55109 10.5 3.75 10.5H11.25C11.4489 10.5 11.6397 10.421 11.7803 10.2803C11.921 10.1397 12 9.94891 12 9.75C12 9.55109 11.921 9.36032 11.7803 9.21967C11.6397 9.07902 11.4489 9 11.25 9H3.75ZM3.75 12C3.55109 12 3.36032 12.079 3.21967 12.2197C3.07902 12.3603 3 12.5511 3 12.75C3 12.9489 3.07902 13.1397 3.21967 13.2803C3.36032 13.421 3.55109 13.5 3.75 13.5H5.25C5.44891 13.5 5.63968 13.421 5.78033 13.2803C5.92098 13.1397 6 12.9489 6 12.75C6 12.5511 5.92098 12.3603 5.78033 12.2197C5.63968 12.079 5.44891 12 5.25 12H3.75ZM8.25 12C8.05109 12 7.86032 12.079 7.71967 12.2197C7.57902 12.3603 7.5 12.5511 7.5 12.75C7.5 12.9489 7.57902 13.1397 7.71967 13.2803C7.86032 13.421 8.05109 13.5 8.25 13.5H9.75C9.94891 13.5 10.1397 13.421 10.2803 13.2803C10.421 13.1397 10.5 12.9489 10.5 12.75C10.5 12.5511 10.421 12.3603 10.2803 12.2197C10.1397 12.079 9.94891 12 9.75 12H8.25ZM12.75 12C12.5511 12 12.3603 12.079 12.2197 12.2197C12.079 12.3603 12 12.5511 12 12.75C12 12.9489 12.079 13.1397 12.2197 13.2803C12.3603 13.421 12.5511 13.5 12.75 13.5H14.25C14.4489 13.5 14.6397 13.421 14.7803 13.2803C14.921 13.1397 15 12.9489 15 12.75C15 12.5511 14.921 12.3603 14.7803 12.2197C14.6397 12.079 14.4489 12 14.25 12H12.75ZM17.25 12C17.0511 12 16.8603 12.079 16.7197 12.2197C16.579 12.3603 16.5 12.5511 16.5 12.75C16.5 12.9489 16.579 13.1397 16.7197 13.2803C16.8603 13.421 17.0511 13.5 17.25 13.5H18.75C18.9489 13.5 19.1397 13.421 19.2803 13.2803C19.421 13.1397 19.5 12.9489 19.5 12.75C19.5 12.5511 19.421 12.3603 19.2803 12.2197C19.1397 12.079 18.9489 12 18.75 12H17.25Z" fill="#585D68"/>
</svg>
