<svg width="16" height="17" viewBox="0 0 16 17" fill="none" xmlns="http://www.w3.org/2000/svg">
<g clip-path="url(#clip0_463_1275)">
<path d="M13.3781 6.53463V4.46054C13.3781 2.03093 10.94 0.0161133 8.00001 0.0161133C5.05994 0.0161133 2.62184 2.03093 2.62184 4.46057V6.53466C1.40278 6.53466 0.470581 7.30502 0.470581 8.31244V11.2754C0.470581 13.8828 3.05209 16.0161 6.20728 16.0161H9.79271C12.9479 16.0161 15.5294 13.8828 15.5294 11.2754V8.31241C15.5294 7.36426 14.5972 6.53463 13.3781 6.53463ZM8.35854 11.2161V12.7569C8.35854 12.9346 8.21512 13.0532 8.00001 13.0532C7.7849 13.0532 7.64149 12.9346 7.64149 12.7569V11.2161C7.21123 11.0976 6.9244 10.742 6.9244 10.3865C6.9244 9.91242 7.42638 9.49759 8.00005 9.49759C8.57372 9.49759 9.0757 9.91242 9.0757 10.3865C9.07562 10.8013 8.78879 11.0976 8.35854 11.2161ZM11.2269 6.53463H4.7731V4.46054C4.7731 2.97908 6.20728 1.79389 7.99997 1.79389C9.79267 1.79389 11.2268 2.97908 11.2268 4.46054V6.53463H11.2269Z" fill="white"/>
</g>
<defs>
<clipPath id="clip0_463_1275">
<rect width="16" height="16" fill="white" transform="translate(0 0.0161133)"/>
</clipPath>
</defs>
</svg>
