<svg width="17" height="13" viewBox="0 0 17 13" fill="none" xmlns="http://www.w3.org/2000/svg">
<path d="M3 0.5H16.5V9.5H3V0.5ZM9.75 2.75C10.3467 2.75 10.919 2.98705 11.341 3.40901C11.7629 3.83097 12 4.40326 12 5C12 5.59674 11.7629 6.16903 11.341 6.59099C10.919 7.01295 10.3467 7.25 9.75 7.25C9.15326 7.25 8.58097 7.01295 8.15901 6.59099C7.73705 6.16903 7.5 5.59674 7.5 5C7.5 4.40326 7.73705 3.83097 8.15901 3.40901C8.58097 2.98705 9.15326 2.75 9.75 2.75ZM6 2C6 2.39782 5.84196 2.77936 5.56066 3.06066C5.27936 3.34196 4.89782 3.5 4.5 3.5V6.5C4.89782 6.5 5.27936 6.65804 5.56066 6.93934C5.84196 7.22064 6 7.60218 6 8H13.5C13.5 7.60218 13.658 7.22064 13.9393 6.93934C14.2206 6.65804 14.6022 6.5 15 6.5V3.5C14.6022 3.5 14.2206 3.34196 13.9393 3.06066C13.658 2.77936 13.5 2.39782 13.5 2H6ZM0 3.5H1.5V11H13.5V12.5H0V3.5Z" fill="#386DF5"/>
</svg>
