<svg width="25" height="23" viewBox="0 0 25 23" fill="none" xmlns="http://www.w3.org/2000/svg">
<path fill-rule="evenodd" clip-rule="evenodd" d="M12.3948 3.44725L22.3099 13.3623V20.3145C22.3099 20.9719 22.0488 21.6024 21.5839 22.0672C21.119 22.5321 20.4886 22.7932 19.8311 22.7932H4.95851C4.3011 22.7932 3.67061 22.5321 3.20575 22.0672C2.74089 21.6024 2.47974 20.9719 2.47974 20.3145V13.3623L12.3948 3.44725V3.44725ZM20.6574 2.1368V7.92061L17.3524 4.61558V2.1368C17.3524 1.91767 17.4394 1.70751 17.5944 1.55255C17.7493 1.3976 17.9595 1.31055 18.1786 1.31055H19.8311C20.0503 1.31055 20.2604 1.3976 20.4154 1.55255C20.5703 1.70751 20.6574 1.91767 20.6574 2.1368Z" fill="#0085FF"/>
<path fill-rule="evenodd" clip-rule="evenodd" d="M11.2266 0.483834C11.5365 0.174035 11.9567 0 12.3949 0C12.8331 0 13.2533 0.174035 13.5632 0.483834L24.5475 11.4664C24.7027 11.6216 24.7898 11.832 24.7898 12.0514C24.7898 12.2709 24.7027 12.4813 24.5475 12.6364C24.3924 12.7916 24.1819 12.8787 23.9625 12.8787C23.7431 12.8787 23.5327 12.7916 23.3775 12.6364L12.3949 1.65216L1.41229 12.6364C1.25714 12.7916 1.04672 12.8787 0.827301 12.8787C0.607887 12.8787 0.39746 12.7916 0.242311 12.6364C0.0871619 12.4813 0 12.2709 0 12.0514C0 11.832 0.0871619 11.6216 0.242311 11.4664L11.2266 0.483834Z" fill="#0085FF"/>
</svg>
