<svg width="17" height="10" viewBox="0 0 17 10" fill="none" xmlns="http://www.w3.org/2000/svg">
<path d="M15.4602 8.97365C15.539 8.83975 10.7907 4.54426 10.7907 4.54426C10.1936 4.01869 9.8208 4.01042 8.99962 4.54426C8.99962 4.54426 2.37932 8.83629 2.39821 8.96838L2.39685 8.96934C2.39718 8.9705 2.39798 8.97126 2.39851 8.97233C2.41807 9.10487 2.46193 9.22693 2.52664 9.33371C2.55427 9.3793 2.59119 9.41748 2.62609 9.45719L2.62359 9.45882C2.62638 9.46191 2.6307 9.46333 2.63349 9.46642C2.78211 9.63118 2.99165 9.73789 3.24373 9.76834C3.24768 9.76884 3.25047 9.77093 3.25442 9.77143H3.27003C3.30854 9.77518 3.34387 9.78464 3.38418 9.78464H14.1239C14.6528 9.78464 15.1736 9.45208 15.4537 8.98587C15.4566 8.98239 15.4604 8.9799 15.4631 8.97634L15.4602 8.97365Z" fill="#96A9B2"/>
<path d="M10.0109 4.051L2.43506 8.93143L3.94886 2.01748C4.09641 1.34359 4.7622 0.797363 5.43609 0.797363H16.0104C16.6842 0.797363 17.1109 1.34355 16.9633 2.01748L15.4495 8.93143L10.0109 4.051Z" fill="#B9C5C6"/>
<path d="M4.11768 1.59341L8.71803 5.9572C9.30596 6.47467 9.67299 6.48283 10.4815 5.9572L16.9825 1.60032C16.9245 1.42587 16.8106 1.28804 16.6699 1.17814L16.7593 1.11834C16.6102 0.948837 16.3962 0.838902 16.1382 0.810547L5.30306 0.810912C5.03345 0.838902 4.77088 0.949203 4.54802 1.11834L4.61084 1.17737C4.42421 1.28582 4.25182 1.42125 4.11768 1.59341Z" fill="#EDECE6"/>
<path d="M4.11391 1.60228C4.03624 1.73413 8.71144 5.96341 8.71144 5.96341C9.29937 6.48088 9.6664 6.48905 10.4749 5.96341C10.4749 5.96341 16.9932 1.73752 16.9746 1.60749L16.976 1.60653C16.9756 1.6054 16.9749 1.60464 16.9743 1.60357C16.9551 1.47305 16.9119 1.35292 16.8482 1.24774C16.821 1.20285 16.7847 1.16526 16.7503 1.12615L16.7527 1.12452C16.75 1.1215 16.7457 1.12007 16.743 1.11702C16.5967 0.954819 16.3903 0.849731 16.1422 0.819748C16.1383 0.819283 16.1355 0.817191 16.1316 0.816727H16.1163C16.0784 0.813041 16.0436 0.803711 16.0039 0.803711H5.42958C4.90889 0.803711 4.39603 1.13116 4.12035 1.59016C4.11753 1.59358 4.11374 1.59604 4.11108 1.59956L4.11391 1.60228Z" fill="#DCE2E2"/>
<path d="M3.13597 2.92676H0.479492C0.259455 2.92676 0.0810547 2.74836 0.0810547 2.52832C0.0810547 2.30828 0.259455 2.12988 0.479492 2.12988H3.13597C3.35601 2.12988 3.53441 2.30828 3.53441 2.52832C3.53441 2.74836 3.35604 2.92676 3.13597 2.92676ZM2.70075 5.25881C2.70075 5.03877 2.52235 4.86037 2.30231 4.86037H0.479492C0.259455 4.86037 0.0810547 5.03877 0.0810547 5.25881C0.0810547 5.47885 0.259455 5.65725 0.479492 5.65725H2.30231C2.52238 5.65725 2.70075 5.47885 2.70075 5.25881ZM2.09595 7.98934C2.09595 7.7693 1.91755 7.5909 1.69752 7.5909H0.479492C0.259455 7.5909 0.0810547 7.7693 0.0810547 7.98934C0.0810547 8.20937 0.259455 8.38777 0.479492 8.38777H1.69752C1.91755 8.38777 2.09595 8.20937 2.09595 7.98934Z" fill="white"/>
</svg>
