<svg width="28" height="20" viewBox="0 0 28 20" fill="none" xmlns="http://www.w3.org/2000/svg">
<path d="M20.3636 0C22.3889 0 24.3313 0.790177 25.7634 2.1967C27.1955 3.60322 28 5.51088 28 7.5V12.5C28 14.4891 27.1955 16.3968 25.7634 17.8033C24.3313 19.2098 22.3889 20 20.3636 20H7.63636C5.61107 20 3.66874 19.2098 2.23664 17.8033C0.804543 16.3968 0 14.4891 0 12.5V7.5C0 5.51088 0.804543 3.60322 2.23664 2.1967C3.66874 0.790177 5.61107 0 7.63636 0H20.3636ZM11.4545 6.25H8.90909V8.75H6.36364V11.25H8.90782L8.90909 13.75H11.4545L11.4533 11.25H14V8.75H11.4545V6.25ZM21.6364 11.25H19.0909V13.75H21.6364V11.25ZM19.0909 6.25H16.5455V8.75H19.0909V6.25Z" fill="#373F4D"/>
</svg>
