<svg width="10" height="8" viewBox="0 0 10 8" fill="none" xmlns="http://www.w3.org/2000/svg">
<path fill-rule="evenodd" clip-rule="evenodd" d="M1.25 0C0.918479 0 0.600537 0.140476 0.366116 0.390524C0.131696 0.640573 0 0.979711 0 1.33333V4C0 4.35362 0.131696 4.69276 0.366116 4.94281C0.600537 5.19286 0.918479 5.33333 1.25 5.33333V1.33333H7.5C7.5 0.979711 7.3683 0.640573 7.13388 0.390524C6.89946 0.140476 6.58152 0 6.25 0H1.25ZM2.5 4C2.5 3.64638 2.6317 3.30724 2.86612 3.05719C3.10054 2.80714 3.41848 2.66667 3.75 2.66667H8.75C9.08152 2.66667 9.39946 2.80714 9.63388 3.05719C9.8683 3.30724 10 3.64638 10 4V6.66667C10 7.02029 9.8683 7.35943 9.63388 7.60948C9.39946 7.85952 9.08152 8 8.75 8H3.75C3.41848 8 3.10054 7.85952 2.86612 7.60948C2.6317 7.35943 2.5 7.02029 2.5 6.66667V4ZM6.25 6.66667C6.58152 6.66667 6.89946 6.52619 7.13388 6.27614C7.3683 6.02609 7.5 5.68696 7.5 5.33333C7.5 4.97971 7.3683 4.64057 7.13388 4.39052C6.89946 4.14048 6.58152 4 6.25 4C5.91848 4 5.60054 4.14048 5.36612 4.39052C5.1317 4.64057 5 4.97971 5 5.33333C5 5.68696 5.1317 6.02609 5.36612 6.27614C5.60054 6.52619 5.91848 6.66667 6.25 6.66667Z" fill="#009BF2"/>
</svg>
