<svg width="16" height="13" viewBox="0 0 16 13" fill="none" xmlns="http://www.w3.org/2000/svg">
<path d="M5.87143 6.01216C5.87143 6.55921 6.08796 7.08386 6.47338 7.47069C6.85879 7.85751 7.38153 8.07483 7.9266 8.07483C8.47166 8.07483 8.9944 7.85751 9.37982 7.47069C9.76524 7.08386 9.98176 6.55921 9.98176 6.01216C9.98176 5.4651 9.76524 4.94045 9.37982 4.55363C8.9944 4.1668 8.47166 3.94948 7.9266 3.94948C7.38153 3.94948 6.85879 4.1668 6.47338 4.55363C6.08796 4.94045 5.87143 5.4651 5.87143 6.01216ZM15.894 5.53701C14.1545 1.85918 11.525 0.00830078 8 0.00830078C4.47319 0.00830078 1.84551 1.85918 0.105961 5.53885C0.0361868 5.68713 0 5.84909 0 6.01308C0 6.17707 0.0361868 6.33902 0.105961 6.48731C1.84551 10.1651 4.47502 12.016 8 12.016C11.5268 12.016 14.1545 10.1651 15.894 6.48547C16.0353 6.18712 16.0353 5.84088 15.894 5.53701ZM7.9266 9.2535C6.14301 9.2535 4.69705 7.80226 4.69705 6.01216C4.69705 4.22205 6.14301 2.77081 7.9266 2.77081C9.71019 2.77081 11.1561 4.22205 11.1561 6.01216C11.1561 7.80226 9.71019 9.2535 7.9266 9.2535Z" fill="white"/>
</svg>
