<svg width="26" height="31" viewBox="0 0 26 31" fill="none" xmlns="http://www.w3.org/2000/svg">
<g clip-path="url(#clip0_30_451)">
<path d="M7.1448 22.8005C6.96591 22.7775 6.78568 22.7662 6.6053 22.7669L6.4792 22.7682H6.4857H6.0359V24.0457H6.5377C6.78565 24.0633 7.03478 24.0371 7.2735 23.9682L7.2579 23.972C7.37054 23.9286 7.46809 23.8537 7.5387 23.7563L7.54 23.755C7.61514 23.6406 7.65151 23.5053 7.6438 23.3689C7.63608 23.2325 7.58468 23.1021 7.4971 22.9968L7.4984 22.9981C7.40995 22.891 7.28418 22.8209 7.1461 22.8018H7.1435L7.1448 22.8005Z" fill="#585D68"/>
<path d="M10.0594 24.7315H11.2918L10.6756 23.0601L10.0594 24.7315Z" fill="#585D68"/>
<path d="M23.8251 0H2.3088C1.0335 0 0 1.02688 0 2.294V28.7073C0 29.9744 1.0335 31.0013 2.3088 31.0013H23.8264C25.1017 31.0013 26.1352 29.9744 26.1352 28.7073V2.294C26.1352 1.02688 25.1017 0 23.8264 0H23.8251ZM13.5291 3.51333C13.6227 3.52367 13.728 3.52367 13.8216 3.534C14.1362 3.565 14.4157 3.689 14.638 3.87888L14.6354 3.87758C15.1203 4.30254 15.522 4.80758 15.8223 5.37462L15.8366 5.40304C15.9913 5.67688 16.146 6.00496 16.2773 6.34467L16.2955 6.39892C15.4882 6.50742 14.5301 6.58233 13.5603 6.60558H13.5291V3.51333ZM16.6738 14.3698C15.6406 14.2217 14.5989 14.1388 13.5551 14.1218H13.5291V11.6211H17.0651C17.0248 12.6183 16.8831 13.5625 16.6491 14.4692L16.6699 14.375L16.6738 14.3698ZM13.5291 15.23C14.5081 15.2457 15.4853 15.3195 16.4554 15.4509L16.328 15.4367C16.1846 15.8276 16.0125 16.2075 15.8132 16.5734L15.8366 16.5269C15.5379 17.1037 15.1327 17.6194 14.6419 18.0472L14.6354 18.0523C14.4079 18.2464 14.1253 18.3655 13.8268 18.3933H13.8203C13.7242 18.406 13.6274 18.4129 13.5304 18.414H13.5278L13.5291 15.23ZM16.6322 16.9531C16.8493 16.5669 17.0573 16.111 17.2289 15.6382L17.2497 15.5723C17.7307 15.655 18.2208 15.7596 18.7057 15.8823H18.7161C18.6121 16.0076 18.4964 16.1213 18.3924 16.2259C17.747 16.8714 16.9872 17.3929 16.1512 17.7643L16.1044 17.7837C16.2916 17.5434 16.4658 17.2735 16.6153 16.9893L16.6296 16.9596L16.6322 16.9531ZM20.5582 11.6185C20.4535 12.8098 20.064 13.959 19.422 14.9704L19.4402 14.9394L19.3141 14.9084C18.7405 14.7581 18.1621 14.6263 17.5799 14.5132C17.8035 13.6594 17.9517 12.6674 17.9946 11.6482L17.9959 11.6198L20.5582 11.6185ZM13.5291 7.70608C14.6191 7.68415 15.7069 7.59919 16.7869 7.45162L16.6426 7.46842C16.8753 8.30929 17.03 9.28321 17.0703 10.2868L17.0716 10.3127H13.5356L13.5291 7.70608ZM17.5513 7.32246C18.1363 7.21912 18.6953 7.09383 19.2543 6.93754L19.3791 6.90654C20.0187 7.87271 20.4399 9.03262 20.5478 10.283L20.5491 10.3101H17.979C17.9444 9.27007 17.7927 8.23719 17.5266 7.23075L17.5487 7.32762L17.5513 7.32246ZM18.6368 5.952C18.1662 6.06696 17.6865 6.17029 17.2159 6.25296C17.0505 5.79248 16.8502 5.34514 16.6166 4.91479L16.6426 4.96646C16.4779 4.66745 16.2946 4.37885 16.094 4.10233L16.1109 4.12687C16.9629 4.50233 17.7384 5.02988 18.3989 5.68333C18.4717 5.77633 18.5562 5.86029 18.6394 5.95329L18.6368 5.952ZM11.5128 3.87629C11.7325 3.68771 12.0133 3.56371 12.3214 3.534H12.3279C12.4137 3.52237 12.5151 3.51462 12.6178 3.51333H12.6204V6.59525C11.6522 6.57958 10.6858 6.50582 9.7266 6.37437L9.8514 6.38858C10.0061 5.99075 10.1608 5.66267 10.3337 5.34621L10.3103 5.39271C10.621 4.80242 11.0149 4.30125 11.4855 3.88275L11.4907 3.87888L11.5128 3.87629ZM8.5774 14.5145C7.982 14.6281 7.397 14.7534 6.8432 14.9097L6.7171 14.9407C6.07925 13.9496 5.69581 12.8182 5.6004 11.6457L5.5991 11.6198H8.1692C8.1978 12.6622 8.3434 13.6581 8.5956 14.6113L8.5748 14.5196L8.5774 14.5145ZM7.4386 15.894C7.91923 15.7699 8.40501 15.6665 8.8946 15.584C9.0896 16.1252 9.2976 16.5798 9.5368 17.0164L9.5108 16.9647C9.6928 17.2915 9.8683 17.5667 10.0594 17.8289L10.0425 17.8043C9.19047 17.4289 8.41497 16.9013 7.7545 16.2479C7.6505 16.1329 7.5465 16.0192 7.4425 15.894H7.4386ZM9.8202 15.4367C10.6522 15.3166 11.622 15.2417 12.6061 15.23H12.6191V18.4153C12.385 18.402 12.1516 18.3779 11.9197 18.343C11.775 18.2554 11.6372 18.1569 11.5076 18.0485L11.5128 18.0523C11.0291 17.6289 10.627 17.1217 10.3259 16.5553L10.3116 16.5269C10.131 16.1965 9.97334 15.8543 9.8397 15.5026L9.8189 15.4419L9.8202 15.4367ZM12.6204 14.1179C11.4907 14.1399 10.4026 14.229 9.3366 14.384L9.477 14.3672C9.24057 13.4764 9.1041 12.5624 9.0701 11.6418L9.0688 11.6173H12.6204V14.1179ZM9.5082 7.46583C10.5345 7.61617 11.57 7.69601 12.6074 7.70479H12.6204V10.3101H9.0688C9.1169 9.28062 9.2729 8.30929 9.5264 7.378L9.5043 7.47358L9.5082 7.46583ZM10.0399 4.12429C9.8657 4.36325 9.6889 4.63708 9.529 4.92254L9.5069 4.96517C9.28869 5.35811 9.10304 5.76807 8.9518 6.19096L8.9336 6.25167C8.4569 6.1662 7.98304 6.06583 7.5127 5.95071H7.5023C7.58365 5.85865 7.66731 5.76864 7.7532 5.68075C8.40168 5.04397 9.15875 4.5266 9.9892 4.15271L10.0373 4.13333L10.0399 4.12429ZM6.8965 6.93625C7.4503 7.08221 8.0145 7.20621 8.5995 7.32117C8.34355 8.28971 8.19662 9.28349 8.1614 10.2842L8.1601 10.3101H5.59C5.6948 9.08479 6.10639 7.905 6.7873 6.87812L6.7704 6.90525L6.8965 6.93625ZM8.0665 24.5287C7.9239 24.6273 7.76508 24.7003 7.5972 24.7445L7.5868 24.747C7.3133 24.7897 7.03684 24.8108 6.76 24.8103L6.63 24.809H6.6365H6.0411V26.5115H5.122V21.9971H6.5949C6.96847 21.9791 7.34287 22.0052 7.7103 22.0746L7.6804 22.0694C7.94196 22.1421 8.17248 22.2977 8.3369 22.5125L8.3395 22.515C8.5033 22.7643 8.6008 23.0692 8.6008 23.3972C8.6008 23.6504 8.5436 23.8894 8.4396 24.1025L8.4435 24.0922C8.36085 24.2698 8.23151 24.4219 8.0691 24.5326L8.0652 24.5352L8.0665 24.5287ZM11.9938 26.5102L11.596 25.4833H9.776L9.399 26.5102H8.4279L10.1959 21.9958H11.167L12.9844 26.5102H11.9938ZM16.7258 25.9186C16.5807 26.1456 16.368 26.3221 16.1174 26.4236L16.1083 26.4262C15.8405 26.5321 15.5311 26.5941 15.2061 26.5941L15.1112 26.5928H15.1151C14.6374 26.6223 14.1648 26.4812 13.7826 26.195L13.7878 26.1989C13.4636 25.9002 13.2661 25.4901 13.2353 25.0519V25.0467L14.1232 24.964C14.1544 25.2224 14.2714 25.4484 14.4469 25.6163C14.6445 25.7493 14.877 25.8219 15.1156 25.8251C15.3543 25.8283 15.5886 25.762 15.7898 25.6344L15.7846 25.637C15.8532 25.5861 15.9095 25.5206 15.9494 25.4453C15.9892 25.37 16.0115 25.2867 16.0147 25.2017V25.2004V25.1901C16.0148 25.0951 15.9812 25.0032 15.9198 24.9305V24.9317C15.8267 24.8431 15.7147 24.7765 15.5922 24.7367L15.5857 24.7354C15.4817 24.6941 15.2308 24.6321 14.8577 24.5378C14.4811 24.4678 14.1255 24.3136 13.8177 24.087L13.8242 24.0922C13.694 23.9828 13.5893 23.8465 13.5174 23.6928C13.4456 23.5391 13.4083 23.3717 13.4082 23.2022V23.1777V23.1699C13.4082 22.9322 13.4823 22.7127 13.6097 22.5318L13.6071 22.5357C13.7475 22.3355 13.9386 22.1779 14.1622 22.0823L14.17 22.0798C14.4183 21.9803 14.7056 21.9235 15.0072 21.9235L15.0709 21.9248H15.0683C15.5301 21.8879 15.9892 22.0228 16.3566 22.3032L16.3514 22.2993C16.4925 22.4202 16.6057 22.5699 16.6834 22.7382C16.761 22.9065 16.8012 23.0894 16.8012 23.2745V23.2965V23.2952L15.8821 23.3365C15.8606 23.1464 15.7717 22.9701 15.6312 22.8392C15.4795 22.7352 15.2994 22.6798 15.1151 22.6804L15.0436 22.683H15.0462C14.8239 22.6677 14.6029 22.7269 14.4183 22.8509L14.4222 22.8483C14.3772 22.8802 14.3405 22.9222 14.315 22.971C14.2894 23.0197 14.2758 23.0737 14.2753 23.1286V23.1325C14.2753 23.241 14.3286 23.3378 14.4105 23.3985H14.4118C14.6562 23.5419 14.9409 23.6478 15.2438 23.6969L15.2581 23.6982C15.6364 23.7796 15.9679 23.8907 16.2812 24.0328L16.25 24.0198C16.4567 24.1296 16.6257 24.2846 16.7479 24.4719L16.7505 24.4771C16.8688 24.6766 16.9308 24.9042 16.9299 25.1358L16.9286 25.1952V25.1927V25.2275C16.9286 25.4885 16.8506 25.7313 16.7154 25.9328L16.718 25.9276L16.7258 25.9186ZM20.956 25.9186C20.8109 26.1456 20.5982 26.3221 20.3476 26.4236L20.3385 26.4262C20.0707 26.5321 19.7613 26.5941 19.4363 26.5941L19.3414 26.5928H19.3453C18.8676 26.6223 18.395 26.4812 18.0128 26.195L18.018 26.1989C17.6938 25.9002 17.4963 25.4901 17.4655 25.0519V25.0467L18.3534 24.964C18.3846 25.2224 18.5016 25.4484 18.6771 25.6163C18.8747 25.7493 19.1072 25.8219 19.3458 25.8251C19.5845 25.8283 19.8188 25.762 20.02 25.6344L20.0148 25.637C20.0834 25.5861 20.1397 25.5206 20.1796 25.4453C20.2194 25.37 20.2417 25.2867 20.2449 25.2017V25.2004V25.1901C20.245 25.0951 20.2114 25.0032 20.15 24.9305V24.9317C20.0569 24.8431 19.9449 24.7765 19.8224 24.7367L19.8159 24.7354C19.7119 24.6941 19.461 24.6321 19.0879 24.5378C18.7113 24.4678 18.3557 24.3136 18.0479 24.087L18.0544 24.0922C17.9242 23.9828 17.8195 23.8465 17.7476 23.6928C17.6758 23.5391 17.6385 23.3717 17.6384 23.2022V23.1777V23.1699C17.6384 22.9322 17.7125 22.7127 17.8399 22.5318L17.8373 22.5357C17.9757 22.3357 18.1681 22.1786 18.3924 22.0823L18.4002 22.0798C18.6485 21.9803 18.9371 21.9235 19.2374 21.9235L19.3011 21.9248H19.2985C19.7603 21.8879 20.2194 22.0228 20.5868 22.3032L20.5816 22.2993C20.7227 22.4202 20.8359 22.5699 20.9136 22.7382C20.9912 22.9065 21.0314 23.0894 21.0314 23.2745V23.2965V23.2952L20.1123 23.3365C20.0908 23.1464 20.0019 22.9701 19.8614 22.8392C19.7097 22.7352 19.5296 22.6798 19.3453 22.6804L19.2738 22.683H19.2764C19.0541 22.6677 18.8331 22.7269 18.6485 22.8509L18.6524 22.8483C18.6074 22.8802 18.5707 22.9222 18.5452 22.971C18.5196 23.0197 18.506 23.0737 18.5055 23.1286V23.1325C18.5055 23.241 18.5588 23.3378 18.6407 23.3985H18.642C18.8851 23.5419 19.1698 23.6465 19.4727 23.6969L19.487 23.6995C19.8653 23.7809 20.1968 23.892 20.5101 24.034L20.4789 24.0211C20.6856 24.1309 20.8546 24.2859 20.9768 24.4732L20.9794 24.4784C21.0977 24.6779 21.1597 24.9055 21.1588 25.1371L21.1575 25.1965V25.194L21.1601 25.2702C21.1605 25.5084 21.0855 25.7406 20.9456 25.9341L20.9482 25.9302L20.956 25.9186Z" fill="#585D68"/>
</g>
<defs>
<clipPath id="clip0_30_451">
<rect width="26" height="31" fill="white"/>
</clipPath>
</defs>
</svg>
