<svg width="31" height="23" viewBox="0 0 31 23" fill="none" xmlns="http://www.w3.org/2000/svg">
<path d="M9.3 11.5C12.2983 11.5 14.725 9.05371 14.725 6.03125C14.725 3.00879 12.2983 0.5625 9.3 0.5625C6.30172 0.5625 3.875 3.00879 3.875 6.03125C3.875 9.05371 6.30172 11.5 9.3 11.5ZM13.02 13.0625H12.618C11.6105 13.5508 10.4916 13.8438 9.3 13.8438C8.10844 13.8438 6.99437 13.5508 5.98203 13.0625H5.58C2.49937 13.0625 0 15.582 0 18.6875V20.0938C0 21.3877 1.04141 22.4375 2.325 22.4375H16.275C17.5586 22.4375 18.6 21.3877 18.6 20.0938V18.6875C18.6 15.582 16.1006 13.0625 13.02 13.0625ZM23.25 11.5C25.8172 11.5 27.9 9.40039 27.9 6.8125C27.9 4.22461 25.8172 2.125 23.25 2.125C20.6828 2.125 18.6 4.22461 18.6 6.8125C18.6 9.40039 20.6828 11.5 23.25 11.5ZM25.575 13.0625H25.3909C24.7177 13.2969 24.0056 13.4531 23.25 13.4531C22.4944 13.4531 21.7823 13.2969 21.1091 13.0625H20.925C19.9369 13.0625 19.0262 13.3506 18.227 13.8145C19.4089 15.0986 20.15 16.8027 20.15 18.6875V20.5625C20.15 20.6699 20.1258 20.7725 20.1209 20.875H28.675C29.9586 20.875 31 19.8252 31 18.5312C31 15.5088 28.5733 13.0625 25.575 13.0625Z" fill="#1B76FF"/>
</svg>
