<svg width="28" height="28" viewBox="0 0 28 28" fill="none" xmlns="http://www.w3.org/2000/svg">
<path d="M9.33331 14.9336V11.5866L12.1333 8.78662L14.9333 11.5866V14.9336H9.33331Z" fill="#373F4C"/>
<path fill-rule="evenodd" clip-rule="evenodd" d="M0 12.1328C0.000248863 10.177 0.473277 8.25025 1.37878 6.51672C2.28429 4.78318 3.59543 3.29423 5.2005 2.17672C6.80557 1.05921 8.657 0.34627 10.597 0.0986331C12.5371 -0.149003 14.5082 0.0760074 16.3426 0.754495C18.1769 1.43298 19.82 2.54484 21.1319 3.99533C22.4439 5.44582 23.3857 7.19195 23.8772 9.08496C24.3688 10.978 24.3954 12.9617 23.9549 14.8673C23.5143 16.7728 22.6197 18.5436 21.3472 20.0288L27.7275 26.4053L26.4077 27.725L20.0275 21.3466C18.2655 22.8562 16.1076 23.8289 13.8097 24.1495C11.5117 24.47 9.17002 24.125 7.06219 23.1553C4.95435 22.1855 3.16875 20.6318 1.91706 18.6781C0.66536 16.7245 5.28983e-05 14.453 0 12.1328ZM16.5275 10.5386L12.7941 6.8053C12.7074 6.71838 12.6044 6.64942 12.491 6.60237C12.3777 6.55532 12.2561 6.5311 12.1333 6.5311C12.0106 6.5311 11.889 6.55532 11.7756 6.60237C11.6622 6.64942 11.5592 6.71838 11.4725 6.8053L7.7392 10.5386C7.65258 10.6255 7.58393 10.7285 7.53717 10.8419C7.4904 10.9553 7.46645 11.0768 7.46667 11.1994V15.8661C7.46667 16.1136 7.565 16.351 7.74003 16.5261C7.91507 16.7011 8.15246 16.7994 8.4 16.7994H15.8667C16.1142 16.7994 16.3516 16.7011 16.5266 16.5261C16.7017 16.351 16.8 16.1136 16.8 15.8661V11.1994C16.8002 11.0768 16.7763 10.9553 16.7295 10.8419C16.6827 10.7285 16.6141 10.6255 16.5275 10.5386Z" fill="#373F4C"/>
</svg>
