<svg width="22" height="26" viewBox="0 0 22 26" fill="none" xmlns="http://www.w3.org/2000/svg">
<path d="M11 0.166504L0.5 4.83317V11.8332C0.5 18.3082 4.98 24.3632 11 25.8332C17.02 24.3632 21.5 18.3082 21.5 11.8332V4.83317L11 0.166504ZM11 4.7165C11.6922 4.7165 12.3689 4.92177 12.9445 5.30636C13.5201 5.69094 13.9687 6.23757 14.2336 6.87711C14.4985 7.51665 14.5678 8.22039 14.4327 8.89932C14.2977 9.57825 13.9644 10.2019 13.4749 10.6914C12.9854 11.1809 12.3617 11.5142 11.6828 11.6493C11.0039 11.7843 10.3001 11.715 9.66061 11.4501C9.02107 11.1852 8.47444 10.7366 8.08986 10.161C7.70527 9.58543 7.5 8.90874 7.5 8.2165C7.5 7.28825 7.86875 6.39801 8.52513 5.74163C9.1815 5.08525 10.0717 4.7165 11 4.7165ZM11 13.9332C13.3333 13.9332 18 15.2048 18 17.5265C17.2338 18.6816 16.1936 19.6292 14.9722 20.2847C13.7508 20.9402 12.3862 21.2832 11 21.2832C9.61383 21.2832 8.24921 20.9402 7.02782 20.2847C5.80643 19.6292 4.76623 18.6816 4 17.5265C4 15.2048 8.66667 13.9332 11 13.9332Z" fill="#1B76FF"/>
</svg>
