<svg width="23" height="14" viewBox="0 0 23 14" fill="none" xmlns="http://www.w3.org/2000/svg">
<path d="M0 3.625C0 2.8625 0.302901 2.13123 0.842068 1.59207C1.38124 1.0529 2.1125 0.75 2.875 0.75H20.125C20.8875 0.75 21.6188 1.0529 22.1579 1.59207C22.6971 2.13123 23 2.8625 23 3.625V10.8125C23 11.575 22.6971 12.3063 22.1579 12.8454C21.6188 13.3846 20.8875 13.6875 20.125 13.6875H2.875C2.1125 13.6875 1.38124 13.3846 0.842068 12.8454C0.302901 12.3063 0 11.575 0 10.8125V3.625ZM18.6875 3.98438V4.70312C18.6875 4.9015 18.8485 5.0625 19.0469 5.0625H19.7656C19.8609 5.0625 19.9523 5.02464 20.0197 4.95724C20.0871 4.88985 20.125 4.79844 20.125 4.70312V3.98438C20.125 3.88906 20.0871 3.79765 20.0197 3.73026C19.9523 3.66286 19.8609 3.625 19.7656 3.625H19.0469C18.9516 3.625 18.8602 3.66286 18.7928 3.73026C18.7254 3.79765 18.6875 3.88906 18.6875 3.98438ZM3.23438 6.5C3.13906 6.5 3.04765 6.53786 2.98026 6.60526C2.91286 6.67265 2.875 6.76406 2.875 6.85938V7.57812C2.875 7.7765 3.036 7.9375 3.23438 7.9375H3.95312C4.04844 7.9375 4.13985 7.89964 4.20724 7.83224C4.27464 7.76485 4.3125 7.67344 4.3125 7.57812V6.85938C4.3125 6.76406 4.27464 6.67265 4.20724 6.60526C4.13985 6.53786 4.04844 6.5 3.95312 6.5H3.23438ZM5.75 6.85938V7.57812C5.75 7.7765 5.911 7.9375 6.10938 7.9375H6.82812C6.92344 7.9375 7.01485 7.89964 7.08224 7.83224C7.14964 7.76485 7.1875 7.67344 7.1875 7.57812V6.85938C7.1875 6.76406 7.14964 6.67265 7.08224 6.60526C7.01485 6.53786 6.92344 6.5 6.82812 6.5H6.10938C6.01406 6.5 5.92265 6.53786 5.85526 6.60526C5.78786 6.67265 5.75 6.76406 5.75 6.85938ZM8.98438 6.5C8.88906 6.5 8.79765 6.53786 8.73026 6.60526C8.66286 6.67265 8.625 6.76406 8.625 6.85938V7.57812C8.625 7.7765 8.786 7.9375 8.98438 7.9375H9.70312C9.79844 7.9375 9.88985 7.89964 9.95724 7.83224C10.0246 7.76485 10.0625 7.67344 10.0625 7.57812V6.85938C10.0625 6.76406 10.0246 6.67265 9.95724 6.60526C9.88985 6.53786 9.79844 6.5 9.70312 6.5H8.98438ZM11.5 6.85938V7.57812C11.5 7.7765 11.661 7.9375 11.8594 7.9375H12.5781C12.6734 7.9375 12.7648 7.89964 12.8322 7.83224C12.8996 7.76485 12.9375 7.67344 12.9375 7.57812V6.85938C12.9375 6.76406 12.8996 6.67265 12.8322 6.60526C12.7648 6.53786 12.6734 6.5 12.5781 6.5H11.8594C11.7641 6.5 11.6727 6.53786 11.6053 6.60526C11.5379 6.67265 11.5 6.76406 11.5 6.85938ZM19.0469 6.5C18.9516 6.5 18.8602 6.53786 18.7928 6.60526C18.7254 6.67265 18.6875 6.76406 18.6875 6.85938V7.57812C18.6875 7.7765 18.8485 7.9375 19.0469 7.9375H19.7656C19.8609 7.9375 19.9523 7.89964 20.0197 7.83224C20.0871 7.76485 20.125 7.67344 20.125 7.57812V6.85938C20.125 6.76406 20.0871 6.67265 20.0197 6.60526C19.9523 6.53786 19.8609 6.5 19.7656 6.5H19.0469ZM19.0469 9.375C18.9516 9.375 18.8602 9.41286 18.7928 9.48026C18.7254 9.54765 18.6875 9.63906 18.6875 9.73438V10.4531C18.6875 10.6515 18.8485 10.8125 19.0469 10.8125H19.7656C19.8609 10.8125 19.9523 10.7746 20.0197 10.7072C20.0871 10.6398 20.125 10.5484 20.125 10.4531V9.73438C20.125 9.63906 20.0871 9.54765 20.0197 9.48026C19.9523 9.41286 19.8609 9.375 19.7656 9.375H19.0469ZM14.7344 6.5C14.6391 6.5 14.5477 6.53786 14.4803 6.60526C14.4129 6.67265 14.375 6.76406 14.375 6.85938V7.57812C14.375 7.7765 14.536 7.9375 14.7344 7.9375H16.8906C16.9859 7.9375 17.0773 7.89964 17.1447 7.83224C17.2121 7.76485 17.25 7.67344 17.25 7.57812V6.85938C17.25 6.76406 17.2121 6.67265 17.1447 6.60526C17.0773 6.53786 16.9859 6.5 16.8906 6.5H14.7344ZM15.8125 9.73438V10.4531C15.8125 10.6515 15.9735 10.8125 16.1719 10.8125H16.8906C16.9859 10.8125 17.0773 10.7746 17.1447 10.7072C17.2121 10.6398 17.25 10.5484 17.25 10.4531V9.73438C17.25 9.63906 17.2121 9.54765 17.1447 9.48026C17.0773 9.41286 16.9859 9.375 16.8906 9.375H16.1719C16.0766 9.375 15.9852 9.41286 15.9178 9.48026C15.8504 9.54765 15.8125 9.63906 15.8125 9.73438ZM16.1719 3.625C16.0766 3.625 15.9852 3.66286 15.9178 3.73026C15.8504 3.79765 15.8125 3.88906 15.8125 3.98438V4.70312C15.8125 4.9015 15.9735 5.0625 16.1719 5.0625H16.8906C16.9859 5.0625 17.0773 5.02464 17.1447 4.95724C17.2121 4.88985 17.25 4.79844 17.25 4.70312V3.98438C17.25 3.88906 17.2121 3.79765 17.1447 3.73026C17.0773 3.66286 16.9859 3.625 16.8906 3.625H16.1719ZM12.9375 3.98438V4.70312C12.9375 4.9015 13.0985 5.0625 13.2969 5.0625H14.0156C14.1109 5.0625 14.2023 5.02464 14.2697 4.95724C14.3371 4.88985 14.375 4.79844 14.375 4.70312V3.98438C14.375 3.88906 14.3371 3.79765 14.2697 3.73026C14.2023 3.66286 14.1109 3.625 14.0156 3.625H13.2969C13.2016 3.625 13.1102 3.66286 13.0428 3.73026C12.9754 3.79765 12.9375 3.88906 12.9375 3.98438ZM10.4219 3.625C10.3266 3.625 10.2352 3.66286 10.1678 3.73026C10.1004 3.79765 10.0625 3.88906 10.0625 3.98438V4.70312C10.0625 4.9015 10.2235 5.0625 10.4219 5.0625H11.1406C11.2359 5.0625 11.3273 5.02464 11.3947 4.95724C11.4621 4.88985 11.5 4.79844 11.5 4.70312V3.98438C11.5 3.88906 11.4621 3.79765 11.3947 3.73026C11.3273 3.66286 11.2359 3.625 11.1406 3.625H10.4219ZM7.1875 3.98438V4.70312C7.1875 4.9015 7.3485 5.0625 7.54688 5.0625H8.26562C8.36094 5.0625 8.45235 5.02464 8.51974 4.95724C8.58714 4.88985 8.625 4.79844 8.625 4.70312V3.98438C8.625 3.88906 8.58714 3.79765 8.51974 3.73026C8.45235 3.66286 8.36094 3.625 8.26562 3.625H7.54688C7.45156 3.625 7.36015 3.66286 7.29276 3.73026C7.22536 3.79765 7.1875 3.88906 7.1875 3.98438ZM3.23438 3.625C3.13906 3.625 3.04765 3.66286 2.98026 3.73026C2.91286 3.79765 2.875 3.88906 2.875 3.98438V4.70312C2.875 4.9015 3.036 5.0625 3.23438 5.0625H5.39062C5.48594 5.0625 5.57735 5.02464 5.64474 4.95724C5.71214 4.88985 5.75 4.79844 5.75 4.70312V3.98438C5.75 3.88906 5.71214 3.79765 5.64474 3.73026C5.57735 3.66286 5.48594 3.625 5.39062 3.625H3.23438ZM2.875 9.73438V10.4531C2.875 10.6515 3.036 10.8125 3.23438 10.8125H3.95312C4.04844 10.8125 4.13985 10.7746 4.20724 10.7072C4.27464 10.6398 4.3125 10.5484 4.3125 10.4531V9.73438C4.3125 9.63906 4.27464 9.54765 4.20724 9.48026C4.13985 9.41286 4.04844 9.375 3.95312 9.375H3.23438C3.13906 9.375 3.04765 9.41286 2.98026 9.48026C2.91286 9.54765 2.875 9.63906 2.875 9.73438ZM6.10938 9.375C6.01406 9.375 5.92265 9.41286 5.85526 9.48026C5.78786 9.54765 5.75 9.63906 5.75 9.73438V10.4531C5.75 10.6515 5.911 10.8125 6.10938 10.8125H14.0156C14.1109 10.8125 14.2023 10.7746 14.2697 10.7072C14.3371 10.6398 14.375 10.5484 14.375 10.4531V9.73438C14.375 9.63906 14.3371 9.54765 14.2697 9.48026C14.2023 9.41286 14.1109 9.375 14.0156 9.375H6.10938Z" fill="#373F4C"/>
</svg>
