<svg width="28" height="26" viewBox="0 0 28 26" fill="none" xmlns="http://www.w3.org/2000/svg">
<path d="M26.7296 12.7949L14.6622 0.736304C14.5753 0.649246 14.4721 0.580177 14.3585 0.533052C14.2449 0.485927 14.1231 0.46167 14.0001 0.46167C13.8771 0.46167 13.7553 0.485927 13.6417 0.533052C13.5281 0.580177 13.4249 0.649246 13.338 0.736304L1.27063 12.7949C0.919067 13.1465 0.719849 13.624 0.719849 14.122C0.719849 15.1562 1.56067 15.997 2.59485 15.997H3.86633V24.6015C3.86633 25.1201 4.28528 25.539 4.80383 25.539H12.1251V18.9765H15.4064V25.539H23.1964C23.715 25.539 24.1339 25.1201 24.1339 24.6015V15.997H25.4054C25.9034 15.997 26.381 15.8008 26.7325 15.4463C27.462 14.7138 27.462 13.5273 26.7296 12.7949V12.7949Z" fill="#1B76FF"/>
</svg>
