<svg width="23" height="12" viewBox="0 0 23 12" fill="none" xmlns="http://www.w3.org/2000/svg">
<path d="M16.9625 0.250005C15.6477 0.248283 14.3765 0.721692 13.3831 1.58304C12.3896 2.4444 11.7409 3.63568 11.5563 4.9375H6.71253C6.52238 4.20105 6.07017 3.55923 5.44065 3.13235C4.81114 2.70546 4.04755 2.52282 3.293 2.61866C2.53846 2.7145 1.84478 3.08224 1.34197 3.65295C0.839168 4.22366 0.561768 4.95815 0.561768 5.71875C0.561768 6.47936 0.839168 7.21385 1.34197 7.78456C1.84478 8.35527 2.53846 8.72301 3.293 8.81885C4.04755 8.91469 4.81114 8.73205 5.44065 8.30516C6.07017 7.87828 6.52238 7.23646 6.71253 6.5H11.5563C11.7061 7.53778 12.151 8.51061 12.8382 9.30261C13.5253 10.0946 14.4257 10.6724 15.4319 10.9671C16.4382 11.2618 17.5079 11.261 18.5138 10.9648C19.5196 10.6686 20.4191 10.0895 21.105 9.29646C21.791 8.50345 22.2345 7.52995 22.3828 6.49196C22.531 5.45396 22.3777 4.39523 21.9412 3.4419C21.5046 2.48857 20.8032 1.68083 19.9205 1.11491C19.0378 0.549002 18.0111 0.248776 16.9625 0.250005ZM16.9625 9.625C15.9265 9.625 14.933 9.21345 14.2004 8.48089C13.4678 7.74833 13.0563 6.75476 13.0563 5.71875C13.0563 4.68275 13.4678 3.68918 14.2004 2.95662C14.933 2.22405 15.9265 1.8125 16.9625 1.8125C17.9985 1.8125 18.9921 2.22405 19.7247 2.95662C20.4572 3.68918 20.8688 4.68275 20.8688 5.71875C20.8688 6.75476 20.4572 7.74833 19.7247 8.48089C18.9921 9.21345 17.9985 9.625 16.9625 9.625Z" fill="#373F4C"/>
</svg>
