<svg width="19" height="16" viewBox="0 0 19 16" fill="none" xmlns="http://www.w3.org/2000/svg">
<path d="M18.4309 1.28755L13.5834 2.79839V5.16672H12.4168V3.00255L7.16675 0.313385V2.25005H6.00009V0.0742188L0.359254 2.40755C0.30333 2.43033 0.255299 2.46898 0.22109 2.51874C0.186881 2.56849 0.167992 2.62718 0.166754 2.68755V14.7626C0.166426 14.8139 0.178916 14.8646 0.203093 14.91C0.22727 14.9553 0.262373 14.9939 0.305225 15.0223C0.348077 15.0507 0.397327 15.0679 0.44852 15.0725C0.499712 15.077 0.551233 15.0688 0.598421 15.0484L6.00009 12.8201V10.4167H7.16675V13.0592L12.4168 15.7484V13.3334H13.5834V15.5442L18.6176 13.9692C18.6807 13.9493 18.7357 13.9096 18.7745 13.856C18.8134 13.8025 18.834 13.7379 18.8334 13.6717V1.58505C18.8339 1.53623 18.8227 1.48799 18.8009 1.4443C18.7791 1.4006 18.7473 1.36269 18.708 1.33367C18.6688 1.30464 18.6232 1.28533 18.575 1.27732C18.5269 1.2693 18.4775 1.27281 18.4309 1.28755ZM7.16675 9.25005H6.00009V6.91672H7.16675V9.25005ZM7.16675 5.75005H6.00009V3.41672H7.16675V5.75005ZM13.5834 12.1667H12.4168V9.83339H13.5834V12.1667ZM13.5834 8.66672H12.4168V6.33339H13.5834V8.66672Z" fill="#373F4C"/>
</svg>
