<svg width="25" height="25" viewBox="0 0 25 25" fill="none" xmlns="http://www.w3.org/2000/svg">
<path d="M12.4999 16.6667C14.7978 16.6667 16.6666 14.798 16.6666 12.5001V6.25006C16.6666 3.94069 14.8072 2.06152 12.5218 2.06152C12.4485 2.06196 12.3754 2.0707 12.3041 2.08757C11.2346 2.13942 10.2259 2.60043 9.48677 3.37522C8.74766 4.15001 8.33467 5.17928 8.33325 6.25006V12.5001C8.33325 14.798 10.202 16.6667 12.4999 16.6667Z" fill="#1B76FF"/>
<path d="M11.4584 20.7615V22.9167H13.5417V20.7615C17.6449 20.2458 20.8334 16.7427 20.8334 12.5H18.7501C18.7501 15.9469 15.947 18.75 12.5001 18.75C9.05321 18.75 6.25008 15.9469 6.25008 12.5H4.16675C4.16675 16.7417 7.35529 20.2458 11.4584 20.7615Z" fill="#1B76FF"/>
</svg>
