<svg width="29" height="30" viewBox="0 0 29 30" fill="none" xmlns="http://www.w3.org/2000/svg">
<path d="M14.5056 10.9155C13.4824 10.9155 12.5242 11.3044 11.7988 12.0153C11.0767 12.7261 10.6763 13.6649 10.6763 14.6674C10.6763 15.67 11.0767 16.6088 11.7988 17.3196C12.5242 18.0271 13.4824 18.4194 14.5056 18.4194C15.5287 18.4194 16.4869 18.0271 17.2124 17.3196C17.9344 16.6088 18.3348 15.67 18.3348 14.6674C18.3348 13.6649 17.9344 12.7261 17.2124 12.0153C16.858 11.6654 16.4363 11.388 15.9716 11.1992C15.5069 11.0104 15.0086 10.914 14.5056 10.9155ZM28.6145 18.8117L26.3765 16.9374C26.4826 16.3003 26.5373 15.6498 26.5373 15.0027C26.5373 14.3556 26.4826 13.7018 26.3765 13.0681L28.6145 11.1938C28.7835 11.052 28.9045 10.8631 28.9614 10.6523C29.0182 10.4415 29.0082 10.2187 28.9327 10.0135L28.9019 9.92637C28.286 8.23881 27.3631 6.67454 26.178 5.30938L26.1164 5.23896C25.9725 5.07317 25.7807 4.95399 25.5663 4.89712C25.3519 4.84026 25.1249 4.84839 24.9153 4.92044L22.1366 5.88943C21.11 5.06461 19.9671 4.41414 18.7283 3.9615L18.1911 1.11485C18.1505 0.900405 18.0444 0.703119 17.8867 0.549204C17.729 0.395288 17.5272 0.29203 17.3082 0.253147L17.2158 0.236382C15.4364 -0.078794 13.5611 -0.078794 11.7817 0.236382L11.6893 0.253147C11.4702 0.29203 11.2685 0.395288 11.1108 0.549204C10.9531 0.703119 10.8469 0.900405 10.8064 1.11485L10.2657 3.97491C9.03867 4.43116 7.89561 5.08005 6.88134 5.89614L4.08214 4.92044C3.8726 4.84782 3.64547 4.8394 3.43092 4.89629C3.21638 4.95319 3.02458 5.07271 2.88102 5.23896L2.81943 5.30938C1.63641 6.676 0.71377 8.23987 0.0955119 9.92637L0.0647138 10.0135C-0.0892764 10.4327 0.0373379 10.9021 0.38296 11.1938L2.64833 13.0882C2.54224 13.7185 2.49091 14.3623 2.49091 14.9994C2.49091 15.6431 2.54224 16.2869 2.64833 16.9105L0.389804 18.8049C0.220742 18.9468 0.0997429 19.1356 0.042895 19.3465C-0.013953 19.5573 -0.0039557 19.7801 0.0715577 19.9852L0.102356 20.0724C0.721738 21.7589 1.63541 23.318 2.82627 24.6894L2.88787 24.7598C3.03178 24.9256 3.22358 25.0447 3.43799 25.1016C3.65241 25.1585 3.87938 25.1503 4.08899 25.0783L6.88819 24.1026C7.90794 24.9241 9.04405 25.5745 10.2725 26.0238L10.8132 28.8839C10.8538 29.0983 10.9599 29.2956 11.1176 29.4495C11.2753 29.6034 11.4771 29.7067 11.6961 29.7456L11.7885 29.7623C13.5854 30.0792 15.4257 30.0792 17.2226 29.7623L17.315 29.7456C17.534 29.7067 17.7358 29.6034 17.8935 29.4495C18.0512 29.2956 18.1574 29.0983 18.1979 28.8839L18.7352 26.0372C19.9739 25.5812 21.1169 24.9341 22.1435 24.1093L24.9221 25.0783C25.1317 25.1509 25.3588 25.1593 25.5734 25.1024C25.7879 25.0455 25.9797 24.926 26.1233 24.7598L26.1849 24.6894C27.3757 23.3113 28.2894 21.7589 28.9088 20.0724L28.9396 19.9852C29.0867 19.5694 28.9601 19.1034 28.6145 18.8117ZM14.5056 20.5619C11.1828 20.5619 8.48969 17.9231 8.48969 14.6674C8.48969 11.4117 11.1828 8.77296 14.5056 8.77296C17.8283 8.77296 20.5214 11.4117 20.5214 14.6674C20.5214 17.9231 17.8283 20.5619 14.5056 20.5619Z" fill="#1B76FF"/>
</svg>
