<svg width="18" height="16" viewBox="0 0 18 16" fill="none" xmlns="http://www.w3.org/2000/svg">
<path d="M4.09372 7.65079L11.4081 3.67451L13.744 7.93544L6.42965 11.9117L4.09372 7.65079ZM14.4046 4.8109C14.7272 5.39922 15.4798 5.6091 16.0858 5.27969L17.2537 7.41016C17.5763 7.99847 17.3465 8.74242 16.7406 9.07183L5.76903 15.0363C5.16308 15.3657 4.41042 15.1558 4.08789 14.5675L2.91992 12.437C3.52587 12.1076 3.75562 11.3636 3.43309 10.7753C3.11056 10.187 2.3579 9.97713 1.75195 10.3065L0.583985 8.17607C0.261455 7.58775 0.491205 6.84381 1.09715 6.5144L12.0687 0.549972C12.6747 0.220562 13.4273 0.430443 13.7498 1.01876L14.9178 3.14923C14.3119 3.47864 14.0821 4.22258 14.4046 4.8109ZM12.0422 3.09934C11.8809 2.80518 11.5046 2.70024 11.2016 2.86495L3.52153 7.04004C3.21856 7.20475 3.10368 7.57672 3.26495 7.87088L5.79555 12.4869C5.95681 12.781 6.33314 12.886 6.63612 12.7213L14.3162 8.54619C14.6192 8.38148 14.7341 8.00951 14.5728 7.71535L12.0422 3.09934Z" fill="white"/>
</svg>
